<mxfile host="app.diagrams.net" modified="2020-03-29T10:38:20.300Z" agent="Mozilla/5.0 (Macintosh; Intel Mac OS X 10_14_6) AppleWebKit/537.36 (KHTML, like Gecko) Chrome/80.0.3987.149 Safari/537.36" etag="GN9gGwwMgiRe8TiiQlqN" version="12.9.3" type="github" pages="3">
  <diagram id="XfgUZCqZ-UhJJhVUizb4" name="框架">
    <mxGraphModel dx="1321" dy="695" grid="1" gridSize="10" guides="1" tooltips="1" connect="1" arrows="1" fold="1" page="1" pageScale="1" pageWidth="827" pageHeight="1169" math="0" shadow="0">
      <root>
        <mxCell id="BNlpcu6FY4RgHqhrOH3b-0" />
        <mxCell id="e3R8xtYoDrwRmVbws1Fm-52" value="背景" parent="BNlpcu6FY4RgHqhrOH3b-0" />
        <mxCell id="e3R8xtYoDrwRmVbws1Fm-53" value="" style="html=1;verticalLabelPosition=bottom;align=center;labelBackgroundColor=#ffffff;verticalAlign=top;strokeWidth=2;strokeColor=#6c8ebf;shadow=0;dashed=0;shape=mxgraph.ios7.icons.cube;fillColor=#dae8fc;gradientColor=#FFFFFF;gradientDirection=north;opacity=40;" parent="e3R8xtYoDrwRmVbws1Fm-52" vertex="1">
          <mxGeometry x="268.7061310782241" y="260" width="1123.7491190979563" height="600" as="geometry" />
        </mxCell>
        <mxCell id="e3R8xtYoDrwRmVbws1Fm-64" value="" style="endArrow=classic;html=1;exitX=0.25;exitY=1;exitDx=0;exitDy=0;" parent="e3R8xtYoDrwRmVbws1Fm-52" source="e3R8xtYoDrwRmVbws1Fm-66" edge="1">
          <mxGeometry width="50" height="50" relative="1" as="geometry">
            <mxPoint x="790" y="160" as="sourcePoint" />
            <mxPoint x="850" y="270" as="targetPoint" />
          </mxGeometry>
        </mxCell>
        <mxCell id="e3R8xtYoDrwRmVbws1Fm-65" value="底层框架" parent="BNlpcu6FY4RgHqhrOH3b-0" />
        <mxCell id="e3R8xtYoDrwRmVbws1Fm-73" value="演进力量分析" parent="BNlpcu6FY4RgHqhrOH3b-0" />
        <mxCell id="e3R8xtYoDrwRmVbws1Fm-74" value="&lt;span style=&quot;font-size: 16px&quot;&gt;&lt;b&gt;产品能力&lt;/b&gt;&lt;/span&gt;" style="text;html=1;strokeColor=none;fillColor=none;align=center;verticalAlign=middle;whiteSpace=wrap;rounded=0;" parent="e3R8xtYoDrwRmVbws1Fm-73" vertex="1">
          <mxGeometry x="158.57" y="350" width="70" height="20" as="geometry" />
        </mxCell>
        <mxCell id="e3R8xtYoDrwRmVbws1Fm-75" value="" style="endArrow=classic;html=1;exitX=0.499;exitY=0.4;exitDx=0;exitDy=0;exitPerimeter=0;strokeWidth=5;" parent="e3R8xtYoDrwRmVbws1Fm-73" edge="1">
          <mxGeometry width="50" height="50" relative="1" as="geometry">
            <mxPoint x="830.2955602536995" y="500.75" as="sourcePoint" />
            <mxPoint x="236" y="373.25" as="targetPoint" />
          </mxGeometry>
        </mxCell>
        <mxCell id="e3R8xtYoDrwRmVbws1Fm-76" value="" style="endArrow=classic;html=1;exitX=0.5;exitY=0.401;exitDx=0;exitDy=0;exitPerimeter=0;strokeWidth=5;" parent="e3R8xtYoDrwRmVbws1Fm-73" edge="1">
          <mxGeometry width="50" height="50" relative="1" as="geometry">
            <mxPoint x="830.5806906272023" y="500.5999999999999" as="sourcePoint" />
            <mxPoint x="1426" y="372.5" as="targetPoint" />
          </mxGeometry>
        </mxCell>
        <mxCell id="e3R8xtYoDrwRmVbws1Fm-77" value="" style="endArrow=classic;html=1;strokeWidth=5;exitX=0.5;exitY=0.4;exitDx=0;exitDy=0;exitPerimeter=0;" parent="e3R8xtYoDrwRmVbws1Fm-73" edge="1">
          <mxGeometry width="50" height="50" relative="1" as="geometry">
            <mxPoint x="830.5806906272023" y="500" as="sourcePoint" />
            <mxPoint x="830.5806906272023" y="920" as="targetPoint" />
          </mxGeometry>
        </mxCell>
        <mxCell id="e3R8xtYoDrwRmVbws1Fm-78" value="&lt;span style=&quot;font-size: 16px&quot;&gt;&lt;b&gt;业务能力&lt;/b&gt;&lt;/span&gt;" style="text;html=1;strokeColor=none;fillColor=none;align=center;verticalAlign=middle;whiteSpace=wrap;rounded=0;" parent="e3R8xtYoDrwRmVbws1Fm-73" vertex="1">
          <mxGeometry x="1440" y="360" width="70" height="20" as="geometry" />
        </mxCell>
        <mxCell id="e3R8xtYoDrwRmVbws1Fm-79" value="&lt;span style=&quot;font-size: 16px&quot;&gt;&lt;b&gt;技术能力&lt;/b&gt;&lt;/span&gt;" style="text;html=1;strokeColor=none;fillColor=none;align=center;verticalAlign=middle;whiteSpace=wrap;rounded=0;" parent="e3R8xtYoDrwRmVbws1Fm-73" vertex="1">
          <mxGeometry x="800" y="940" width="70" height="20" as="geometry" />
        </mxCell>
        <mxCell id="e3R8xtYoDrwRmVbws1Fm-80" value="" style="endArrow=classic;html=1;fillColor=#d5e8d4;strokeColor=#82b366;strokeWidth=4;opacity=20;" parent="e3R8xtYoDrwRmVbws1Fm-73" edge="1">
          <mxGeometry width="50" height="50" relative="1" as="geometry">
            <mxPoint x="830" y="500" as="sourcePoint" />
            <mxPoint x="1510" y="790" as="targetPoint" />
          </mxGeometry>
        </mxCell>
        <mxCell id="e3R8xtYoDrwRmVbws1Fm-82" value="" style="endArrow=classic;html=1;fillColor=#d5e8d4;strokeColor=#82b366;opacity=20;strokeWidth=4;" parent="e3R8xtYoDrwRmVbws1Fm-73" edge="1">
          <mxGeometry width="50" height="50" relative="1" as="geometry">
            <mxPoint x="830" y="505" as="sourcePoint" />
            <mxPoint x="830" y="100" as="targetPoint" />
          </mxGeometry>
        </mxCell>
        <mxCell id="e3R8xtYoDrwRmVbws1Fm-83" value="" style="endArrow=classic;html=1;fillColor=#d5e8d4;strokeColor=#82b366;strokeWidth=4;opacity=20;" parent="e3R8xtYoDrwRmVbws1Fm-73" edge="1">
          <mxGeometry width="50" height="50" relative="1" as="geometry">
            <mxPoint x="830" y="500" as="sourcePoint" />
            <mxPoint x="180" y="780" as="targetPoint" />
          </mxGeometry>
        </mxCell>
        <mxCell id="BNlpcu6FY4RgHqhrOH3b-1" value="产品架构" parent="BNlpcu6FY4RgHqhrOH3b-0" />
        <mxCell id="e3R8xtYoDrwRmVbws1Fm-68" value="" style="endArrow=classic;html=1;entryX=-0.002;entryY=0.7;entryDx=0;entryDy=0;entryPerimeter=0;exitX=1;exitY=0.5;exitDx=0;exitDy=0;" parent="BNlpcu6FY4RgHqhrOH3b-1" source="e3R8xtYoDrwRmVbws1Fm-69" target="e3R8xtYoDrwRmVbws1Fm-53" edge="1">
          <mxGeometry width="50" height="50" relative="1" as="geometry">
            <mxPoint x="210" y="830" as="sourcePoint" />
            <mxPoint x="260" y="780" as="targetPoint" />
          </mxGeometry>
        </mxCell>
        <mxCell id="e3R8xtYoDrwRmVbws1Fm-70" value="" style="endArrow=classic;html=1;entryX=1;entryY=0.732;entryDx=0;entryDy=0;entryPerimeter=0;" parent="BNlpcu6FY4RgHqhrOH3b-1" target="e3R8xtYoDrwRmVbws1Fm-53" edge="1">
          <mxGeometry width="50" height="50" relative="1" as="geometry">
            <mxPoint x="1480" y="640" as="sourcePoint" />
            <mxPoint x="1510" y="800" as="targetPoint" />
          </mxGeometry>
        </mxCell>
        <mxCell id="e3R8xtYoDrwRmVbws1Fm-1" value="业务矩阵" parent="BNlpcu6FY4RgHqhrOH3b-0" />
        <mxCell id="e3R8xtYoDrwRmVbws1Fm-4" value="" style="endArrow=none;html=1;exitX=0.5;exitY=0.999;exitDx=0;exitDy=0;exitPerimeter=0;entryX=0;entryY=0.8;entryDx=0;entryDy=0;entryPerimeter=0;" parent="e3R8xtYoDrwRmVbws1Fm-1" edge="1">
          <mxGeometry width="50" height="50" relative="1" as="geometry">
            <mxPoint x="830.5806906272027" y="686.9000000000003" as="sourcePoint" />
            <mxPoint x="268.7061310782241" y="567.5" as="targetPoint" />
          </mxGeometry>
        </mxCell>
        <mxCell id="e3R8xtYoDrwRmVbws1Fm-5" value="" style="endArrow=none;html=1;exitX=0.5;exitY=0.999;exitDx=0;exitDy=0;exitPerimeter=0;entryX=0;entryY=0.8;entryDx=0;entryDy=0;entryPerimeter=0;" parent="e3R8xtYoDrwRmVbws1Fm-1" edge="1">
          <mxGeometry width="50" height="50" relative="1" as="geometry">
            <mxPoint x="830.5806906272027" y="776.9000000000001" as="sourcePoint" />
            <mxPoint x="268.7061310782241" y="657.5" as="targetPoint" />
          </mxGeometry>
        </mxCell>
        <mxCell id="e3R8xtYoDrwRmVbws1Fm-6" value="" style="endArrow=none;html=1;exitX=0.5;exitY=0.999;exitDx=0;exitDy=0;exitPerimeter=0;entryX=0;entryY=0.8;entryDx=0;entryDy=0;entryPerimeter=0;" parent="e3R8xtYoDrwRmVbws1Fm-1" edge="1">
          <mxGeometry width="50" height="50" relative="1" as="geometry">
            <mxPoint x="830.5806906272027" y="596.9000000000001" as="sourcePoint" />
            <mxPoint x="268.7061310782241" y="477.5" as="targetPoint" />
          </mxGeometry>
        </mxCell>
        <mxCell id="e3R8xtYoDrwRmVbws1Fm-7" value="" style="endArrow=none;html=1;exitX=0.5;exitY=0.999;exitDx=0;exitDy=0;exitPerimeter=0;entryX=0;entryY=0.8;entryDx=0;entryDy=0;entryPerimeter=0;strokeWidth=3;" parent="e3R8xtYoDrwRmVbws1Fm-1" edge="1">
          <mxGeometry width="50" height="50" relative="1" as="geometry">
            <mxPoint x="1217.1839323467234" y="417.6500000000002" as="sourcePoint" />
            <mxPoint x="655.3093727977449" y="298.25" as="targetPoint" />
          </mxGeometry>
        </mxCell>
        <mxCell id="e3R8xtYoDrwRmVbws1Fm-8" value="" style="endArrow=none;html=1;" parent="e3R8xtYoDrwRmVbws1Fm-1" edge="1">
          <mxGeometry width="50" height="50" relative="1" as="geometry">
            <mxPoint x="738.3326286116984" y="757.25" as="sourcePoint" />
            <mxPoint x="738.3326286116984" y="667.25" as="targetPoint" />
          </mxGeometry>
        </mxCell>
        <mxCell id="e3R8xtYoDrwRmVbws1Fm-9" value="" style="endArrow=none;html=1;" parent="e3R8xtYoDrwRmVbws1Fm-1" edge="1">
          <mxGeometry width="50" height="50" relative="1" as="geometry">
            <mxPoint x="646.92318534179" y="737.75" as="sourcePoint" />
            <mxPoint x="646.92318534179" y="647.75" as="targetPoint" />
          </mxGeometry>
        </mxCell>
        <mxCell id="e3R8xtYoDrwRmVbws1Fm-10" value="" style="endArrow=none;html=1;" parent="e3R8xtYoDrwRmVbws1Fm-1" edge="1">
          <mxGeometry width="50" height="50" relative="1" as="geometry">
            <mxPoint x="562.2226920366455" y="719.75" as="sourcePoint" />
            <mxPoint x="562.2226920366455" y="629.75" as="targetPoint" />
          </mxGeometry>
        </mxCell>
        <mxCell id="e3R8xtYoDrwRmVbws1Fm-11" value="" style="endArrow=none;html=1;" parent="e3R8xtYoDrwRmVbws1Fm-1" edge="1">
          <mxGeometry width="50" height="50" relative="1" as="geometry">
            <mxPoint x="411.27131782945736" y="687.5" as="sourcePoint" />
            <mxPoint x="411.27131782945736" y="597.5" as="targetPoint" />
          </mxGeometry>
        </mxCell>
        <mxCell id="e3R8xtYoDrwRmVbws1Fm-12" value="" style="endArrow=none;html=1;" parent="e3R8xtYoDrwRmVbws1Fm-1" edge="1">
          <mxGeometry width="50" height="50" relative="1" as="geometry">
            <mxPoint x="335.7956307258633" y="672.5" as="sourcePoint" />
            <mxPoint x="335.7956307258633" y="582.5" as="targetPoint" />
          </mxGeometry>
        </mxCell>
        <mxCell id="e3R8xtYoDrwRmVbws1Fm-13" value="" style="endArrow=none;html=1;" parent="e3R8xtYoDrwRmVbws1Fm-1" edge="1">
          <mxGeometry width="50" height="50" relative="1" as="geometry">
            <mxPoint x="486.74700493305147" y="704" as="sourcePoint" />
            <mxPoint x="486.74700493305147" y="614" as="targetPoint" />
          </mxGeometry>
        </mxCell>
        <mxCell id="e3R8xtYoDrwRmVbws1Fm-14" value="&lt;b&gt;&lt;font style=&quot;font-size: 18px&quot;&gt;业务系统&lt;/font&gt;&lt;/b&gt;" style="text;html=1;strokeColor=none;fillColor=none;align=center;verticalAlign=middle;whiteSpace=wrap;rounded=0;rotation=15;textOpacity=50;" parent="e3R8xtYoDrwRmVbws1Fm-1" vertex="1">
          <mxGeometry x="435.57448907681464" y="565.8199999999999" width="109.02043692741367" height="15.000000000000002" as="geometry" />
        </mxCell>
        <mxCell id="e3R8xtYoDrwRmVbws1Fm-15" value="&lt;span style=&quot;font-size: 18px&quot;&gt;&lt;b&gt;交互体验&lt;/b&gt;&lt;/span&gt;" style="text;html=1;strokeColor=none;fillColor=none;align=center;verticalAlign=middle;whiteSpace=wrap;rounded=0;rotation=15;textOpacity=50;" parent="e3R8xtYoDrwRmVbws1Fm-1" vertex="1">
          <mxGeometry x="442.3636363636364" y="477.5" width="109.02043692741367" height="15.000000000000002" as="geometry" />
        </mxCell>
        <mxCell id="e3R8xtYoDrwRmVbws1Fm-16" value="&lt;b&gt;营销&lt;/b&gt;" style="text;html=1;strokeColor=none;fillColor=none;align=center;verticalAlign=middle;whiteSpace=wrap;rounded=0;" parent="e3R8xtYoDrwRmVbws1Fm-1" vertex="1">
          <mxGeometry x="763.491190979563" y="717.5" width="33.54474982381959" height="15.000000000000002" as="geometry" />
        </mxCell>
        <mxCell id="e3R8xtYoDrwRmVbws1Fm-17" value="&lt;b&gt;供给&lt;/b&gt;" style="text;html=1;strokeColor=none;fillColor=none;align=center;verticalAlign=middle;whiteSpace=wrap;rounded=0;" parent="e3R8xtYoDrwRmVbws1Fm-1" vertex="1">
          <mxGeometry x="671.2431289640592" y="702.5" width="33.54474982381959" height="15.000000000000002" as="geometry" />
        </mxCell>
        <mxCell id="e3R8xtYoDrwRmVbws1Fm-18" value="&lt;b&gt;用户&lt;/b&gt;" style="text;html=1;strokeColor=none;fillColor=none;align=center;verticalAlign=middle;whiteSpace=wrap;rounded=0;" parent="e3R8xtYoDrwRmVbws1Fm-1" vertex="1">
          <mxGeometry x="587.3812544045102" y="680" width="33.54474982381959" height="15.000000000000002" as="geometry" />
        </mxCell>
        <mxCell id="e3R8xtYoDrwRmVbws1Fm-19" value="&lt;b&gt;交易&lt;/b&gt;" style="text;html=1;strokeColor=none;fillColor=none;align=center;verticalAlign=middle;whiteSpace=wrap;rounded=0;" parent="e3R8xtYoDrwRmVbws1Fm-1" vertex="1">
          <mxGeometry x="503.51937984496124" y="657.5" width="33.54474982381959" height="15.000000000000002" as="geometry" />
        </mxCell>
        <mxCell id="e3R8xtYoDrwRmVbws1Fm-20" value="&lt;b&gt;财务&lt;/b&gt;" style="text;html=1;strokeColor=none;fillColor=none;align=center;verticalAlign=middle;whiteSpace=wrap;rounded=0;" parent="e3R8xtYoDrwRmVbws1Fm-1" vertex="1">
          <mxGeometry x="428.0436927413672" y="642.5" width="33.54474982381959" height="15.000000000000002" as="geometry" />
        </mxCell>
        <mxCell id="e3R8xtYoDrwRmVbws1Fm-21" value="&lt;b&gt;通用&lt;/b&gt;" style="text;html=1;strokeColor=none;fillColor=none;align=center;verticalAlign=middle;whiteSpace=wrap;rounded=0;" parent="e3R8xtYoDrwRmVbws1Fm-1" vertex="1">
          <mxGeometry x="352.56800563777307" y="627.5" width="33.54474982381959" height="15.000000000000002" as="geometry" />
        </mxCell>
        <mxCell id="e3R8xtYoDrwRmVbws1Fm-22" value="&lt;b&gt;&lt;font color=&quot;#97d077&quot;&gt;扩展点&lt;/font&gt;&lt;/b&gt;" style="text;html=1;strokeColor=none;fillColor=none;align=center;verticalAlign=middle;whiteSpace=wrap;rounded=0;" parent="e3R8xtYoDrwRmVbws1Fm-1" vertex="1">
          <mxGeometry x="285.4785059901339" y="612.5" width="33.54474982381959" height="15.000000000000002" as="geometry" />
        </mxCell>
        <mxCell id="e3R8xtYoDrwRmVbws1Fm-23" value="&lt;span style=&quot;font-size: 18px&quot;&gt;&lt;b&gt;基础设施&lt;/b&gt;&lt;/span&gt;" style="text;html=1;strokeColor=none;fillColor=none;align=center;verticalAlign=middle;whiteSpace=wrap;rounded=0;rotation=15;opacity=60;textOpacity=50;" parent="e3R8xtYoDrwRmVbws1Fm-1" vertex="1">
          <mxGeometry x="426.0598308668076" y="740" width="109.02043692741367" height="15.000000000000002" as="geometry" />
        </mxCell>
        <mxCell id="e3R8xtYoDrwRmVbws1Fm-27" value="" style="endArrow=none;html=1;exitX=0.5;exitY=0.999;exitDx=0;exitDy=0;exitPerimeter=0;entryX=0;entryY=0.8;entryDx=0;entryDy=0;entryPerimeter=0;strokeWidth=3;" parent="e3R8xtYoDrwRmVbws1Fm-1" edge="1">
          <mxGeometry width="50" height="50" relative="1" as="geometry">
            <mxPoint x="1268.3396758280483" y="406.4000000000002" as="sourcePoint" />
            <mxPoint x="706.4651162790698" y="287" as="targetPoint" />
          </mxGeometry>
        </mxCell>
        <mxCell id="e3R8xtYoDrwRmVbws1Fm-28" value="" style="endArrow=none;html=1;exitX=0.5;exitY=0.999;exitDx=0;exitDy=0;exitPerimeter=0;entryX=0;entryY=0.8;entryDx=0;entryDy=0;entryPerimeter=0;strokeWidth=3;" parent="e3R8xtYoDrwRmVbws1Fm-1" edge="1">
          <mxGeometry width="50" height="50" relative="1" as="geometry">
            <mxPoint x="1313.6250880902048" y="397.4000000000002" as="sourcePoint" />
            <mxPoint x="751.750528541226" y="278" as="targetPoint" />
          </mxGeometry>
        </mxCell>
        <mxCell id="e3R8xtYoDrwRmVbws1Fm-29" value="" style="endArrow=none;html=1;exitX=0.5;exitY=0.999;exitDx=0;exitDy=0;exitPerimeter=0;entryX=0;entryY=0.8;entryDx=0;entryDy=0;entryPerimeter=0;strokeWidth=3;" parent="e3R8xtYoDrwRmVbws1Fm-1" edge="1">
          <mxGeometry width="50" height="50" relative="1" as="geometry">
            <mxPoint x="1352.2015503875973" y="388.4000000000002" as="sourcePoint" />
            <mxPoint x="790.3269908386185" y="269" as="targetPoint" />
          </mxGeometry>
        </mxCell>
        <mxCell id="e3R8xtYoDrwRmVbws1Fm-30" value="" style="endArrow=none;html=1;strokeWidth=2;exitX=0.5;exitY=1;exitDx=0;exitDy=0;exitPerimeter=0;entryX=1;entryY=0.8;entryDx=0;entryDy=0;entryPerimeter=0;" parent="e3R8xtYoDrwRmVbws1Fm-1" edge="1">
          <mxGeometry width="50" height="50" relative="1" as="geometry">
            <mxPoint x="661.1797040169135" y="462.5" as="sourcePoint" />
            <mxPoint x="1223.0542635658917" y="342.5" as="targetPoint" />
          </mxGeometry>
        </mxCell>
        <mxCell id="e3R8xtYoDrwRmVbws1Fm-31" value="" style="endArrow=none;html=1;strokeWidth=2;exitX=0.5;exitY=1;exitDx=0;exitDy=0;exitPerimeter=0;entryX=1;entryY=0.8;entryDx=0;entryDy=0;entryPerimeter=0;" parent="e3R8xtYoDrwRmVbws1Fm-1" edge="1">
          <mxGeometry width="50" height="50" relative="1" as="geometry">
            <mxPoint x="478.36081747709653" y="425" as="sourcePoint" />
            <mxPoint x="1040.2353770260747" y="305" as="targetPoint" />
          </mxGeometry>
        </mxCell>
        <mxCell id="e3R8xtYoDrwRmVbws1Fm-32" value="" style="endArrow=none;html=1;exitX=0.5;exitY=0.999;exitDx=0;exitDy=0;exitPerimeter=0;strokeWidth=2;" parent="e3R8xtYoDrwRmVbws1Fm-1" edge="1">
          <mxGeometry width="50" height="50" relative="1" as="geometry">
            <mxPoint x="923.6673713883021" y="406.4000000000002" as="sourcePoint" />
            <mxPoint x="532.0324171952079" y="323.75" as="targetPoint" />
          </mxGeometry>
        </mxCell>
        <mxCell id="e3R8xtYoDrwRmVbws1Fm-33" value="" style="endArrow=none;html=1;entryX=0.141;entryY=0.145;entryDx=0;entryDy=0;entryPerimeter=0;opacity=60;" parent="e3R8xtYoDrwRmVbws1Fm-1" edge="1">
          <mxGeometry width="50" height="50" relative="1" as="geometry">
            <mxPoint x="627.6349541930938" y="392.75" as="sourcePoint" />
            <mxPoint x="427.15475687103617" y="347" as="targetPoint" />
          </mxGeometry>
        </mxCell>
        <mxCell id="e3R8xtYoDrwRmVbws1Fm-34" value="&lt;b&gt;&lt;font style=&quot;font-size: 14px&quot;&gt;租房&lt;/font&gt;&lt;/b&gt;" style="text;html=1;strokeColor=none;fillColor=none;align=center;verticalAlign=middle;whiteSpace=wrap;rounded=0;rotation=20;" parent="e3R8xtYoDrwRmVbws1Fm-1" vertex="1">
          <mxGeometry x="939.6" y="432.5" width="56.4" height="15" as="geometry" />
        </mxCell>
        <mxCell id="e3R8xtYoDrwRmVbws1Fm-35" value="&lt;span style=&quot;font-size: 14px&quot;&gt;&lt;b&gt;TOC&lt;/b&gt;&lt;/span&gt;" style="text;html=1;strokeColor=none;fillColor=none;align=center;verticalAlign=middle;whiteSpace=wrap;rounded=0;rotation=20;" parent="e3R8xtYoDrwRmVbws1Fm-1" vertex="1">
          <mxGeometry x="721.5602536997885" y="402.5" width="33.54474982381959" height="15.000000000000002" as="geometry" />
        </mxCell>
        <mxCell id="e3R8xtYoDrwRmVbws1Fm-36" value="&lt;span style=&quot;font-size: 14px&quot;&gt;&lt;b&gt;TOB&lt;/b&gt;&lt;/span&gt;" style="text;html=1;strokeColor=none;fillColor=none;align=center;verticalAlign=middle;whiteSpace=wrap;rounded=0;rotation=15;" parent="e3R8xtYoDrwRmVbws1Fm-1" vertex="1">
          <mxGeometry x="855.13" y="373.5" width="41.87" height="15" as="geometry" />
        </mxCell>
        <mxCell id="e3R8xtYoDrwRmVbws1Fm-37" value="" style="endArrow=none;html=1;exitX=0.5;exitY=0.999;exitDx=0;exitDy=0;exitPerimeter=0;strokeWidth=2;" parent="e3R8xtYoDrwRmVbws1Fm-1" edge="1">
          <mxGeometry width="50" height="50" relative="1" as="geometry">
            <mxPoint x="991.5954897815367" y="392.1500000000002" as="sourcePoint" />
            <mxPoint x="599.1219168428471" y="309.5" as="targetPoint" />
          </mxGeometry>
        </mxCell>
        <mxCell id="e3R8xtYoDrwRmVbws1Fm-38" value="&lt;b&gt;&lt;font style=&quot;font-size: 11px&quot; color=&quot;#97d077&quot;&gt;扩展点&lt;/font&gt;&lt;/b&gt;" style="text;html=1;strokeColor=none;fillColor=none;align=center;verticalAlign=middle;whiteSpace=wrap;rounded=0;rotation=15;" parent="e3R8xtYoDrwRmVbws1Fm-1" vertex="1">
          <mxGeometry x="903.06" y="359.5" width="69.94" height="15" as="geometry" />
        </mxCell>
        <mxCell id="e3R8xtYoDrwRmVbws1Fm-39" value="" style="endArrow=none;html=1;entryX=0.141;entryY=0.145;entryDx=0;entryDy=0;entryPerimeter=0;opacity=60;" parent="e3R8xtYoDrwRmVbws1Fm-1" edge="1">
          <mxGeometry width="50" height="50" relative="1" as="geometry">
            <mxPoint x="531.1937984496124" y="413.75" as="sourcePoint" />
            <mxPoint x="330.71360112755445" y="367.9999999999999" as="targetPoint" />
          </mxGeometry>
        </mxCell>
        <mxCell id="e3R8xtYoDrwRmVbws1Fm-40" value="" style="endArrow=none;html=1;entryX=0.141;entryY=0.145;entryDx=0;entryDy=0;entryPerimeter=0;opacity=60;" parent="e3R8xtYoDrwRmVbws1Fm-1" edge="1">
          <mxGeometry width="50" height="50" relative="1" as="geometry">
            <mxPoint x="580.6723044397463" y="403.25" as="sourcePoint" />
            <mxPoint x="380.19210711768835" y="357.4999999999999" as="targetPoint" />
          </mxGeometry>
        </mxCell>
        <mxCell id="e3R8xtYoDrwRmVbws1Fm-41" value="" style="endArrow=none;html=1;entryX=0.141;entryY=0.145;entryDx=0;entryDy=0;entryPerimeter=0;opacity=60;" parent="e3R8xtYoDrwRmVbws1Fm-1" edge="1">
          <mxGeometry width="50" height="50" relative="1" as="geometry">
            <mxPoint x="681.3065539112051" y="381.5" as="sourcePoint" />
            <mxPoint x="480.82635658914717" y="335.7499999999998" as="targetPoint" />
          </mxGeometry>
        </mxCell>
        <mxCell id="e3R8xtYoDrwRmVbws1Fm-42" value="&lt;span style=&quot;font-size: 11px&quot;&gt;&lt;b&gt;&lt;font color=&quot;#97d077&quot;&gt;扩展点&lt;/font&gt;&lt;/b&gt;&lt;/span&gt;" style="text;html=1;strokeColor=none;fillColor=none;align=center;verticalAlign=middle;whiteSpace=wrap;rounded=0;rotation=15;" parent="e3R8xtYoDrwRmVbws1Fm-1" vertex="1">
          <mxGeometry x="1266" y="357.5" width="40.92" height="15" as="geometry" />
        </mxCell>
        <mxCell id="e3R8xtYoDrwRmVbws1Fm-43" value="&lt;span style=&quot;font-size: 11px&quot;&gt;&lt;b&gt;摄影&lt;/b&gt;&lt;/span&gt;" style="text;html=1;strokeColor=none;fillColor=none;align=center;verticalAlign=middle;whiteSpace=wrap;rounded=0;rotation=15;" parent="e3R8xtYoDrwRmVbws1Fm-1" vertex="1">
          <mxGeometry x="1233.1176885130374" y="367.25" width="33.54474982381959" height="15.000000000000002" as="geometry" />
        </mxCell>
        <mxCell id="e3R8xtYoDrwRmVbws1Fm-44" value="&lt;span style=&quot;font-size: 11px&quot;&gt;&lt;b&gt;保洁&lt;/b&gt;&lt;/span&gt;" style="text;html=1;strokeColor=none;fillColor=none;align=center;verticalAlign=middle;whiteSpace=wrap;rounded=0;rotation=15;" parent="e3R8xtYoDrwRmVbws1Fm-1" vertex="1">
          <mxGeometry x="1194.5412262156449" y="377" width="33.54474982381959" height="15.000000000000002" as="geometry" />
        </mxCell>
        <mxCell id="e3R8xtYoDrwRmVbws1Fm-45" value="&lt;span style=&quot;font-size: 11px&quot;&gt;&lt;b&gt;商城&lt;/b&gt;&lt;/span&gt;" style="text;html=1;strokeColor=none;fillColor=none;align=center;verticalAlign=middle;whiteSpace=wrap;rounded=0;rotation=15;" parent="e3R8xtYoDrwRmVbws1Fm-1" vertex="1">
          <mxGeometry x="1159.9981888653983" y="388.5" width="33.54474982381959" height="15.000000000000002" as="geometry" />
        </mxCell>
        <mxCell id="e3R8xtYoDrwRmVbws1Fm-46" value="&lt;b&gt;&lt;font style=&quot;font-size: 11px&quot; color=&quot;#97d077&quot;&gt;扩展点&lt;/font&gt;&lt;/b&gt;" style="text;html=1;strokeColor=none;fillColor=none;align=center;verticalAlign=middle;whiteSpace=wrap;rounded=0;rotation=10;" parent="e3R8xtYoDrwRmVbws1Fm-1" vertex="1">
          <mxGeometry x="596" y="345.5" width="40.86" height="15" as="geometry" />
        </mxCell>
        <mxCell id="e3R8xtYoDrwRmVbws1Fm-47" value="&lt;span style=&quot;font-size: 14px&quot;&gt;&lt;b&gt;主流程&lt;/b&gt;&lt;/span&gt;" style="text;html=1;strokeColor=none;fillColor=none;align=center;verticalAlign=middle;whiteSpace=wrap;rounded=0;rotation=15;" parent="e3R8xtYoDrwRmVbws1Fm-1" vertex="1">
          <mxGeometry x="394.5" y="392" width="61.5" height="15" as="geometry" />
        </mxCell>
        <mxCell id="e3R8xtYoDrwRmVbws1Fm-48" value="&lt;span style=&quot;font-size: 14px&quot;&gt;&lt;b&gt;买断&lt;/b&gt;&lt;/span&gt;" style="text;html=1;strokeColor=none;fillColor=none;align=center;verticalAlign=middle;whiteSpace=wrap;rounded=0;rotation=15;" parent="e3R8xtYoDrwRmVbws1Fm-1" vertex="1">
          <mxGeometry x="441.43" y="379" width="59.57" height="15" as="geometry" />
        </mxCell>
        <mxCell id="e3R8xtYoDrwRmVbws1Fm-49" value="&lt;span style=&quot;font-size: 14px&quot;&gt;&lt;b&gt;直销&lt;/b&gt;&lt;/span&gt;" style="text;html=1;strokeColor=none;fillColor=none;align=center;verticalAlign=middle;whiteSpace=wrap;rounded=0;rotation=15;" parent="e3R8xtYoDrwRmVbws1Fm-1" vertex="1">
          <mxGeometry x="483.43" y="368" width="59.57" height="15" as="geometry" />
        </mxCell>
        <mxCell id="e3R8xtYoDrwRmVbws1Fm-50" value="&lt;span style=&quot;font-size: 14px&quot;&gt;&lt;b&gt;&lt;font color=&quot;#ea6b66&quot;&gt;会员&lt;/font&gt;&lt;/b&gt;&lt;/span&gt;" style="text;html=1;strokeColor=none;fillColor=none;align=center;verticalAlign=middle;whiteSpace=wrap;rounded=0;rotation=15;" parent="e3R8xtYoDrwRmVbws1Fm-1" vertex="1">
          <mxGeometry x="534" y="356.5" width="59.57" height="15" as="geometry" />
        </mxCell>
        <mxCell id="e3R8xtYoDrwRmVbws1Fm-66" value="&lt;span style=&quot;font-size: 16px&quot;&gt;&lt;b&gt;业务矩阵&lt;/b&gt;&lt;/span&gt;" style="text;html=1;strokeColor=none;fillColor=none;align=center;verticalAlign=middle;whiteSpace=wrap;rounded=0;" parent="e3R8xtYoDrwRmVbws1Fm-1" vertex="1">
          <mxGeometry x="970" y="120" width="70" height="20" as="geometry" />
        </mxCell>
        <mxCell id="e3R8xtYoDrwRmVbws1Fm-69" value="&lt;span style=&quot;font-size: 16px&quot;&gt;&lt;b&gt;产品架构&lt;/b&gt;&lt;/span&gt;" style="text;html=1;strokeColor=none;fillColor=none;align=center;verticalAlign=middle;whiteSpace=wrap;rounded=0;" parent="e3R8xtYoDrwRmVbws1Fm-1" vertex="1">
          <mxGeometry x="90" y="650" width="70" height="20" as="geometry" />
        </mxCell>
        <mxCell id="e3R8xtYoDrwRmVbws1Fm-71" value="&lt;span style=&quot;font-size: 16px&quot;&gt;&lt;b&gt;软件工程&lt;/b&gt;&lt;/span&gt;" style="text;html=1;strokeColor=none;fillColor=none;align=center;verticalAlign=middle;whiteSpace=wrap;rounded=0;" parent="e3R8xtYoDrwRmVbws1Fm-1" vertex="1">
          <mxGeometry x="1490" y="630" width="70" height="20" as="geometry" />
        </mxCell>
        <mxCell id="e3R8xtYoDrwRmVbws1Fm-102" value="&lt;font style=&quot;font-size: 14px&quot;&gt;&lt;b&gt;前端&lt;/b&gt;&lt;/font&gt;" style="text;html=1;strokeColor=none;fillColor=none;align=center;verticalAlign=middle;whiteSpace=wrap;rounded=0;rotation=-15;textOpacity=50;" parent="e3R8xtYoDrwRmVbws1Fm-1" vertex="1">
          <mxGeometry x="862.491190979563" y="515.5" width="33.54474982381959" height="15.000000000000002" as="geometry" />
        </mxCell>
        <mxCell id="e3R8xtYoDrwRmVbws1Fm-103" value="中台" style="text;html=1;strokeColor=none;fillColor=none;align=center;verticalAlign=middle;whiteSpace=wrap;rounded=0;fontSize=14;fontStyle=1;rotation=-15;textOpacity=50;" parent="e3R8xtYoDrwRmVbws1Fm-1" vertex="1">
          <mxGeometry x="950.491190979563" y="498.5" width="33.54474982381959" height="15.000000000000002" as="geometry" />
        </mxCell>
        <mxCell id="e3R8xtYoDrwRmVbws1Fm-106" value="基础设施" style="text;html=1;strokeColor=none;fillColor=none;align=center;verticalAlign=middle;whiteSpace=wrap;rounded=0;fontSize=14;fontStyle=1;rotation=-15;" parent="e3R8xtYoDrwRmVbws1Fm-1" vertex="1">
          <mxGeometry x="1123.49" y="455.5" width="66.51" height="15" as="geometry" />
        </mxCell>
        <mxCell id="e3R8xtYoDrwRmVbws1Fm-107" value="系统运维" style="text;html=1;strokeColor=none;fillColor=none;align=center;verticalAlign=middle;whiteSpace=wrap;rounded=0;fontSize=14;fontStyle=1;rotation=-10;" parent="e3R8xtYoDrwRmVbws1Fm-1" vertex="1">
          <mxGeometry x="1219.49" y="436.5" width="66.51" height="15" as="geometry" />
        </mxCell>
        <mxCell id="e3R8xtYoDrwRmVbws1Fm-110" value="质量保证" style="text;html=1;strokeColor=none;fillColor=none;align=center;verticalAlign=middle;whiteSpace=wrap;rounded=0;fontSize=14;fontStyle=1;rotation=-15;" parent="e3R8xtYoDrwRmVbws1Fm-1" vertex="1">
          <mxGeometry x="1314.49" y="417.5" width="66.51" height="15" as="geometry" />
        </mxCell>
        <mxCell id="e3R8xtYoDrwRmVbws1Fm-112" value="数据" style="text;html=1;strokeColor=none;fillColor=none;align=center;verticalAlign=middle;whiteSpace=wrap;rounded=0;fontSize=14;fontStyle=1;rotation=-15;" parent="e3R8xtYoDrwRmVbws1Fm-1" vertex="1">
          <mxGeometry x="1032.2" y="478.3" width="50.51" height="15" as="geometry" />
        </mxCell>
        <mxCell id="e3R8xtYoDrwRmVbws1Fm-54" value="软件工程" parent="BNlpcu6FY4RgHqhrOH3b-0" />
        <mxCell id="e3R8xtYoDrwRmVbws1Fm-96" value="" style="endArrow=none;html=1;strokeWidth=2;opacity=20;" parent="e3R8xtYoDrwRmVbws1Fm-54" edge="1">
          <mxGeometry width="50" height="50" relative="1" as="geometry">
            <mxPoint x="926" y="838" as="sourcePoint" />
            <mxPoint x="926" y="478" as="targetPoint" />
          </mxGeometry>
        </mxCell>
        <mxCell id="e3R8xtYoDrwRmVbws1Fm-97" value="" style="endArrow=none;html=1;strokeWidth=2;exitX=0.5;exitY=1;exitDx=0;exitDy=0;exitPerimeter=0;entryX=1;entryY=0.8;entryDx=0;entryDy=0;entryPerimeter=0;" parent="e3R8xtYoDrwRmVbws1Fm-54" edge="1">
          <mxGeometry width="50" height="50" relative="1" as="geometry">
            <mxPoint x="831.1797040169135" y="622.5" as="sourcePoint" />
            <mxPoint x="1393.0542635658917" y="502.5" as="targetPoint" />
          </mxGeometry>
        </mxCell>
        <mxCell id="e3R8xtYoDrwRmVbws1Fm-98" value="" style="endArrow=none;html=1;strokeWidth=2;exitX=0.5;exitY=1;exitDx=0;exitDy=0;exitPerimeter=0;entryX=1;entryY=0.8;entryDx=0;entryDy=0;entryPerimeter=0;" parent="e3R8xtYoDrwRmVbws1Fm-54" edge="1">
          <mxGeometry width="50" height="50" relative="1" as="geometry">
            <mxPoint x="831.1797040169135" y="752.5" as="sourcePoint" />
            <mxPoint x="1393.0542635658917" y="632.5" as="targetPoint" />
          </mxGeometry>
        </mxCell>
        <mxCell id="e3R8xtYoDrwRmVbws1Fm-99" value="&lt;span style=&quot;font-size: 18px&quot;&gt;&lt;b&gt;理论素养&lt;/b&gt;&lt;/span&gt;" style="text;html=1;strokeColor=none;fillColor=none;align=center;verticalAlign=middle;whiteSpace=wrap;rounded=0;rotation=-15;" parent="e3R8xtYoDrwRmVbws1Fm-54" vertex="1">
          <mxGeometry x="1052.0598308668077" y="750" width="109.02043692741367" height="15.000000000000002" as="geometry" />
        </mxCell>
        <mxCell id="e3R8xtYoDrwRmVbws1Fm-100" value="&lt;span style=&quot;font-size: 18px&quot;&gt;&lt;b&gt;工程实践&lt;/b&gt;&lt;/span&gt;" style="text;html=1;strokeColor=none;fillColor=none;align=center;verticalAlign=middle;whiteSpace=wrap;rounded=0;rotation=-15;" parent="e3R8xtYoDrwRmVbws1Fm-54" vertex="1">
          <mxGeometry x="1052.0598308668077" y="520" width="109.02043692741367" height="15.000000000000002" as="geometry" />
        </mxCell>
        <mxCell id="e3R8xtYoDrwRmVbws1Fm-101" value="&lt;span style=&quot;font-size: 18px&quot;&gt;&lt;b&gt;工具及技术栈&lt;/b&gt;&lt;/span&gt;" style="text;html=1;strokeColor=none;fillColor=none;align=center;verticalAlign=middle;whiteSpace=wrap;rounded=0;rotation=-15;" parent="e3R8xtYoDrwRmVbws1Fm-54" vertex="1">
          <mxGeometry x="1043.77" y="627.81" width="125.94" height="15" as="geometry" />
        </mxCell>
        <mxCell id="e3R8xtYoDrwRmVbws1Fm-104" value="" style="endArrow=none;html=1;strokeWidth=2;opacity=20;" parent="e3R8xtYoDrwRmVbws1Fm-54" edge="1">
          <mxGeometry width="50" height="50" relative="1" as="geometry">
            <mxPoint x="1011" y="823" as="sourcePoint" />
            <mxPoint x="1011" y="463" as="targetPoint" />
          </mxGeometry>
        </mxCell>
        <mxCell id="e3R8xtYoDrwRmVbws1Fm-105" value="" style="endArrow=none;html=1;strokeWidth=2;opacity=20;" parent="e3R8xtYoDrwRmVbws1Fm-54" edge="1">
          <mxGeometry width="50" height="50" relative="1" as="geometry">
            <mxPoint x="1206" y="781" as="sourcePoint" />
            <mxPoint x="1206" y="421" as="targetPoint" />
          </mxGeometry>
        </mxCell>
        <mxCell id="e3R8xtYoDrwRmVbws1Fm-109" value="" style="endArrow=none;html=1;strokeWidth=2;opacity=20;" parent="e3R8xtYoDrwRmVbws1Fm-54" edge="1">
          <mxGeometry width="50" height="50" relative="1" as="geometry">
            <mxPoint x="1302" y="762" as="sourcePoint" />
            <mxPoint x="1302" y="402" as="targetPoint" />
          </mxGeometry>
        </mxCell>
        <mxCell id="e3R8xtYoDrwRmVbws1Fm-113" value="" style="endArrow=none;html=1;strokeWidth=2;opacity=20;" parent="e3R8xtYoDrwRmVbws1Fm-54" edge="1">
          <mxGeometry width="50" height="50" relative="1" as="geometry">
            <mxPoint x="1104" y="803" as="sourcePoint" />
            <mxPoint x="1104" y="443" as="targetPoint" />
          </mxGeometry>
        </mxCell>
      </root>
    </mxGraphModel>
  </diagram>
  <diagram id="jCu5fo00QPFMeEzj9V5g" name="研发-运维-历史">
    <mxGraphModel dx="1202" dy="591" grid="1" gridSize="10" guides="1" tooltips="1" connect="1" arrows="1" fold="1" page="1" pageScale="1" pageWidth="827" pageHeight="1169" math="0" shadow="0">
      <root>
        <mxCell id="0zy5b5tm0FP5eXGjMJNw-0" />
        <mxCell id="0zy5b5tm0FP5eXGjMJNw-1" parent="0zy5b5tm0FP5eXGjMJNw-0" />
        <mxCell id="JyPsC1iYglPI9zHy5Eir-5" style="edgeStyle=orthogonalEdgeStyle;rounded=0;orthogonalLoop=1;jettySize=auto;html=1;entryX=0.5;entryY=0;entryDx=0;entryDy=0;exitX=0.5;exitY=1;exitDx=0;exitDy=0;" edge="1" parent="0zy5b5tm0FP5eXGjMJNw-1" source="JyPsC1iYglPI9zHy5Eir-3" target="JyPsC1iYglPI9zHy5Eir-4">
          <mxGeometry relative="1" as="geometry" />
        </mxCell>
        <mxCell id="JyPsC1iYglPI9zHy5Eir-3" value="&lt;h1&gt;自建机房&lt;/h1&gt;&lt;p&gt;1、机房管理（电力、温度、安全、卫生）&lt;/p&gt;&lt;p&gt;2、资源浪费（管理、物力、人力）&lt;/p&gt;" style="text;html=1;strokeColor=none;fillColor=none;spacing=5;spacingTop=-20;whiteSpace=wrap;overflow=hidden;rounded=0;" vertex="1" parent="0zy5b5tm0FP5eXGjMJNw-1">
          <mxGeometry x="40" y="40" width="240" height="110" as="geometry" />
        </mxCell>
        <mxCell id="JyPsC1iYglPI9zHy5Eir-7" style="edgeStyle=orthogonalEdgeStyle;rounded=0;orthogonalLoop=1;jettySize=auto;html=1;entryX=0.5;entryY=0;entryDx=0;entryDy=0;exitX=0.5;exitY=1;exitDx=0;exitDy=0;" edge="1" parent="0zy5b5tm0FP5eXGjMJNw-1" target="JyPsC1iYglPI9zHy5Eir-6">
          <mxGeometry relative="1" as="geometry">
            <mxPoint x="160" y="360" as="sourcePoint" />
          </mxGeometry>
        </mxCell>
        <mxCell id="JyPsC1iYglPI9zHy5Eir-8" value="机器虚拟化" style="text;html=1;align=center;verticalAlign=middle;resizable=0;points=[];labelBackgroundColor=#ffffff;" vertex="1" connectable="0" parent="JyPsC1iYglPI9zHy5Eir-7">
          <mxGeometry x="0.3576" y="35" relative="1" as="geometry">
            <mxPoint x="-35" y="-21" as="offset" />
          </mxGeometry>
        </mxCell>
        <mxCell id="JyPsC1iYglPI9zHy5Eir-4" value="&lt;h1&gt;机房托管服务&lt;/h1&gt;&lt;p&gt;1、机器利用率低&lt;/p&gt;&lt;p&gt;2、集群机器管理困难&lt;/p&gt;&lt;p&gt;3、应用部署困难&lt;/p&gt;" style="text;html=1;strokeColor=none;fillColor=none;spacing=5;spacingTop=-20;whiteSpace=wrap;overflow=hidden;rounded=0;" vertex="1" parent="0zy5b5tm0FP5eXGjMJNw-1">
          <mxGeometry x="65" y="230" width="190" height="130" as="geometry" />
        </mxCell>
        <mxCell id="JyPsC1iYglPI9zHy5Eir-12" style="edgeStyle=orthogonalEdgeStyle;rounded=0;orthogonalLoop=1;jettySize=auto;html=1;entryX=0.5;entryY=0;entryDx=0;entryDy=0;" edge="1" parent="0zy5b5tm0FP5eXGjMJNw-1" source="JyPsC1iYglPI9zHy5Eir-6" target="JyPsC1iYglPI9zHy5Eir-11">
          <mxGeometry relative="1" as="geometry" />
        </mxCell>
        <mxCell id="JyPsC1iYglPI9zHy5Eir-6" value="&lt;h1&gt;PAAS平台&lt;/h1&gt;&lt;p&gt;1、应用部署困难&lt;/p&gt;&lt;p&gt;2、集群编排调度困难&lt;/p&gt;" style="text;html=1;strokeColor=none;fillColor=none;spacing=5;spacingTop=-20;whiteSpace=wrap;overflow=hidden;rounded=0;" vertex="1" parent="0zy5b5tm0FP5eXGjMJNw-1">
          <mxGeometry x="65" y="450" width="190" height="120" as="geometry" />
        </mxCell>
        <mxCell id="JyPsC1iYglPI9zHy5Eir-11" value="&lt;h1&gt;容器云&lt;/h1&gt;&lt;p&gt;1、通过容器化实现隔离加限制&lt;/p&gt;&lt;p&gt;2、通过k8s编排平台解决应用管理问题&lt;/p&gt;" style="text;html=1;strokeColor=none;fillColor=none;spacing=5;spacingTop=-20;whiteSpace=wrap;overflow=hidden;rounded=0;" vertex="1" parent="0zy5b5tm0FP5eXGjMJNw-1">
          <mxGeometry x="65" y="640" width="735" height="110" as="geometry" />
        </mxCell>
      </root>
    </mxGraphModel>
  </diagram>
  <diagram id="U0-XG9duaYtIB1b-91Hp" name="研发-运维-现状">
    <mxGraphModel dx="1374" dy="2013" grid="1" gridSize="10" guides="1" tooltips="1" connect="1" arrows="1" fold="1" page="1" pageScale="1" pageWidth="827" pageHeight="1169" math="0" shadow="0">
      <root>
        <mxCell id="tuLZBnIj_oKMGHAQVv-V-0" />
        <mxCell id="tuLZBnIj_oKMGHAQVv-V-52" value="computer" parent="tuLZBnIj_oKMGHAQVv-V-0" />
        <mxCell id="tuLZBnIj_oKMGHAQVv-V-53" value="" style="shape=cube;whiteSpace=wrap;html=1;boundedLbl=1;backgroundOutline=1;darkOpacity=0.05;darkOpacity2=0.1;size=0;fillColor=#67AB9F;strokeColor=#6c8ebf;" vertex="1" parent="tuLZBnIj_oKMGHAQVv-V-52">
          <mxGeometry x="492" y="-240" width="630" height="280" as="geometry" />
        </mxCell>
        <mxCell id="tuLZBnIj_oKMGHAQVv-V-54" value="" style="shape=cube;whiteSpace=wrap;html=1;boundedLbl=1;backgroundOutline=1;darkOpacity=0.05;darkOpacity2=0.1;size=310;fillColor=#67AB9F;" vertex="1" parent="tuLZBnIj_oKMGHAQVv-V-52">
          <mxGeometry x="490" y="40" width="910" height="280" as="geometry" />
        </mxCell>
        <mxCell id="tuLZBnIj_oKMGHAQVv-V-55" value="" style="shape=cube;whiteSpace=wrap;html=1;boundedLbl=1;backgroundOutline=1;darkOpacity=0.05;darkOpacity2=0.1;size=280;fillColor=#67AB9F;" vertex="1" parent="tuLZBnIj_oKMGHAQVv-V-52">
          <mxGeometry x="1121" y="-239" width="278" height="560" as="geometry" />
        </mxCell>
        <mxCell id="tuLZBnIj_oKMGHAQVv-V-1" value="container-backend" parent="tuLZBnIj_oKMGHAQVv-V-0" />
        <mxCell id="tuLZBnIj_oKMGHAQVv-V-5" value="" style="shape=cube;whiteSpace=wrap;html=1;boundedLbl=1;backgroundOutline=1;darkOpacity=0.05;darkOpacity2=0.1;size=130;fillColor=#9AC7BF;dashed=1;strokeColor=#97D077;" vertex="1" parent="tuLZBnIj_oKMGHAQVv-V-1">
          <mxGeometry x="690" y="61" width="390" height="110" as="geometry" />
        </mxCell>
        <mxCell id="tuLZBnIj_oKMGHAQVv-V-7" value="" style="shape=cube;whiteSpace=wrap;html=1;boundedLbl=1;backgroundOutline=1;darkOpacity=0.05;darkOpacity2=0.1;size=0;fillColor=#9AC7BF;opacity=95;strokeColor=#97D077;dashed=1;" vertex="1" parent="tuLZBnIj_oKMGHAQVv-V-1">
          <mxGeometry x="690" y="-89" width="280" height="150" as="geometry" />
        </mxCell>
        <mxCell id="tuLZBnIj_oKMGHAQVv-V-11" value="" style="shape=cube;whiteSpace=wrap;html=1;boundedLbl=1;backgroundOutline=1;darkOpacity=0.05;darkOpacity2=0.1;size=110;fillColor=#9AC7BF;opacity=95;strokeColor=#97D077;dashed=1;" vertex="1" parent="tuLZBnIj_oKMGHAQVv-V-1">
          <mxGeometry x="970" y="-89" width="110" height="260" as="geometry" />
        </mxCell>
        <mxCell id="tuLZBnIj_oKMGHAQVv-V-12" value="容器化进程" parent="tuLZBnIj_oKMGHAQVv-V-0" />
        <mxCell id="tuLZBnIj_oKMGHAQVv-V-32" value="进程" style="shape=actor;whiteSpace=wrap;html=1;fillColor=#7EA6E0;" vertex="1" parent="tuLZBnIj_oKMGHAQVv-V-12">
          <mxGeometry x="871" y="-9" width="50" height="100" as="geometry" />
        </mxCell>
        <mxCell id="tuLZBnIj_oKMGHAQVv-V-64" value="进程" style="shape=actor;whiteSpace=wrap;html=1;fillColor=#7EA6E0;" vertex="1" parent="tuLZBnIj_oKMGHAQVv-V-12">
          <mxGeometry x="930" y="50" width="40" height="80" as="geometry" />
        </mxCell>
        <mxCell id="tuLZBnIj_oKMGHAQVv-V-65" value="进程" style="shape=actor;whiteSpace=wrap;html=1;fillColor=#7EA6E0;" vertex="1" parent="tuLZBnIj_oKMGHAQVv-V-12">
          <mxGeometry x="830" y="50" width="40" height="80" as="geometry" />
        </mxCell>
        <mxCell id="tuLZBnIj_oKMGHAQVv-V-22" value="container-front" style="" parent="tuLZBnIj_oKMGHAQVv-V-0" />
        <mxCell id="tuLZBnIj_oKMGHAQVv-V-43" value="" style="shape=cube;whiteSpace=wrap;html=1;boundedLbl=1;backgroundOutline=1;darkOpacity=0.05;darkOpacity2=0.1;size=113;opacity=80;fillColor=#d5e8d4;strokeColor=#82b366;dashed=1;" vertex="1" parent="tuLZBnIj_oKMGHAQVv-V-22">
          <mxGeometry x="690" y="-90" width="110" height="260" as="geometry" />
        </mxCell>
        <mxCell id="tuLZBnIj_oKMGHAQVv-V-44" value="" style="shape=cube;whiteSpace=wrap;html=1;boundedLbl=1;backgroundOutline=1;darkOpacity=0.05;darkOpacity2=0.1;size=0;opacity=80;fillColor=#d5e8d4;strokeColor=#82b366;dashed=1;" vertex="1" parent="tuLZBnIj_oKMGHAQVv-V-22">
          <mxGeometry x="800" y="20" width="280" height="150" as="geometry" />
        </mxCell>
        <mxCell id="tuLZBnIj_oKMGHAQVv-V-45" value="" style="shape=cube;whiteSpace=wrap;html=1;boundedLbl=1;backgroundOutline=1;darkOpacity=0.05;darkOpacity2=0.1;size=130;fillColor=#d5e8d4;opacity=80;strokeColor=#82b366;dashed=1;" vertex="1" parent="tuLZBnIj_oKMGHAQVv-V-22">
          <mxGeometry x="690" y="-90" width="390" height="110" as="geometry" />
        </mxCell>
        <mxCell id="tuLZBnIj_oKMGHAQVv-V-67" value="原生进程" parent="tuLZBnIj_oKMGHAQVv-V-0" />
        <mxCell id="tuLZBnIj_oKMGHAQVv-V-68" value="进程" style="shape=actor;whiteSpace=wrap;html=1;fillColor=#7EA6E0;" vertex="1" parent="tuLZBnIj_oKMGHAQVv-V-67">
          <mxGeometry x="1150" y="100" width="50" height="100" as="geometry" />
        </mxCell>
        <mxCell id="tuLZBnIj_oKMGHAQVv-V-69" value="进程" style="shape=actor;whiteSpace=wrap;html=1;fillColor=#7EA6E0;" vertex="1" parent="tuLZBnIj_oKMGHAQVv-V-67">
          <mxGeometry x="630" y="30" width="50" height="100" as="geometry" />
        </mxCell>
        <mxCell id="tuLZBnIj_oKMGHAQVv-V-70" value="进程" style="shape=actor;whiteSpace=wrap;html=1;fillColor=#7EA6E0;" vertex="1" parent="tuLZBnIj_oKMGHAQVv-V-67">
          <mxGeometry x="1060" y="190" width="50" height="100" as="geometry" />
        </mxCell>
        <mxCell id="tuLZBnIj_oKMGHAQVv-V-71" value="进程" style="shape=actor;whiteSpace=wrap;html=1;fillColor=#7EA6E0;" vertex="1" parent="tuLZBnIj_oKMGHAQVv-V-67">
          <mxGeometry x="890" y="140" width="50" height="100" as="geometry" />
        </mxCell>
        <mxCell id="tuLZBnIj_oKMGHAQVv-V-57" value="computer-up" parent="tuLZBnIj_oKMGHAQVv-V-0" visible="0" />
        <mxCell id="tuLZBnIj_oKMGHAQVv-V-58" value="" style="shape=cube;whiteSpace=wrap;html=1;boundedLbl=1;backgroundOutline=1;darkOpacity=0.05;darkOpacity2=0.1;size=350;opacity=20;" vertex="1" parent="tuLZBnIj_oKMGHAQVv-V-57">
          <mxGeometry x="491" y="-240" width="909" height="280" as="geometry" />
        </mxCell>
        <mxCell id="tuLZBnIj_oKMGHAQVv-V-60" value="" style="shape=cube;whiteSpace=wrap;html=1;boundedLbl=1;backgroundOutline=1;darkOpacity=0.05;darkOpacity2=0.1;size=280;opacity=20;" vertex="1" parent="tuLZBnIj_oKMGHAQVv-V-57">
          <mxGeometry x="492" y="-238" width="280" height="560" as="geometry" />
        </mxCell>
        <mxCell id="tuLZBnIj_oKMGHAQVv-V-62" value="" style="shape=cube;whiteSpace=wrap;html=1;boundedLbl=1;backgroundOutline=1;darkOpacity=0.05;darkOpacity2=0.1;size=0;opacity=20;" vertex="1" parent="tuLZBnIj_oKMGHAQVv-V-57">
          <mxGeometry x="772" y="40" width="628" height="280" as="geometry" />
        </mxCell>
      </root>
    </mxGraphModel>
  </diagram>
</mxfile>
